<svg xmlns="http://www.w3.org/2000/svg" viewBox="0 0 140 36" height="36"><g fill="#cfd7e6"><path d="M4 18c0-6 3-11 8-11 3 0 5 1.5 8 5.5 3-4 5-5.5 8-5.5 5 0 8 5 8 11s-3 11-8 11c-3 0-5-1.5-8-5.5-3 4-5 5.5-8 5.5-5 0-8-5-8-11zm5 0c0 3 1.3 6 3 6 1 0 2-.6 4-3.4-2-3-3-5.2-5-5.2-1.3 0-2 1.4-2 2.6zm14.5 2.8c2 2.8 3 3.4 4 3.4 1.7 0 3-3 3-6s-.7-4.2-2-4.2c-2 0-3 2.2-5 5.2z"/></g><text x="50" y="27" fill="#cfd7e6" font-family="Arial,Helvetica,sans-serif" font-weight="600" font-size="26" letter-spacing="-0.5">Meta</text></svg>