<svg xmlns="http://www.w3.org/2000/svg" viewBox="0 0 180 36" height="36"><g fill="#cfd7e6"><path d="M32 22l-.8-2.6a3 3 0 0 0-2.9-2H6.5a.6.6 0 0 1-.4-.2.6.6 0 0 1 0-.5.8.8 0 0 1 .7-.5L28 16a3 3 0 0 0 2.6-2.2l1.2-3.2a.7.7 0 0 0 0-.3 11.7 11.7 0 0 0-22.5-1.2A5.2 5.2 0 0 0 1 13.3 5.3 5.3 0 0 0 1.5 16l-.1.4A7.7 7.7 0 0 0 9 24h22.3a.6.6 0 0 0 .6-.4l.1-1.6z"/></g><text x="40" y="27" fill="#cfd7e6" font-family="Arial,Helvetica,sans-serif" font-weight="600" font-size="24" letter-spacing="-0.5">Cloudflare</text></svg>