<svg xmlns="http://www.w3.org/2000/svg" viewBox="0 0 190 36" height="36"><g fill="#cfd7e6"><path d="M18 0a18 18 0 0 0-15.4 27.3L0 36l8.9-2.5A18 18 0 1 0 18 0zm0 32.7a14.7 14.7 0 0 1-7.5-2l-.5-.3-5.3 1.5 1.5-5.1-.4-.6A14.7 14.7 0 1 1 18 32.7zm8.4-11c-.5-.2-2.7-1.3-3.1-1.5s-.7-.2-1 .2-1.2 1.5-1.4 1.8-.5.3-1 .1a12 12 0 0 1-3.5-2.2 13.3 13.3 0 0 1-2.5-3.1c-.3-.5 0-.7.2-.9s.5-.6.7-.9.3-.5.5-.8.1-.6 0-.8-1-2.5-1.4-3.4-.8-.8-1-.8h-.9c-.3 0-.8.1-1.2.6s-1.5 1.5-1.5 3.7 1.6 4.3 1.8 4.6 3.1 4.8 7.6 6.7c1 .5 1.9.7 2.5.9a6 6 0 0 0 2.7.2 4.4 4.4 0 0 0 2.9-2 3.6 3.6 0 0 0 .2-2c-.1-.2-.4-.3-.9-.5z"/></g><text x="45" y="27" fill="#cfd7e6" font-family="Arial,Helvetica,sans-serif" font-weight="600" font-size="26" letter-spacing="-0.5">WhatsApp</text></svg>