<svg width="17" height="17" viewBox="0 0 17 17" fill="none" xmlns="http://www.w3.org/2000/svg">
<path d="M7.7915 9.20837H11.3332M5.6665 9.20837H5.67287M9.20817 12.0417H5.6665M11.3332 12.0417H11.3268" stroke="#9E9E9F" stroke-width="1.2" stroke-linecap="round" stroke-linejoin="round"/>
<path d="M12.75 1.41663V2.83329M4.25 1.41663V2.83329" stroke="#9E9E9F" stroke-width="1.2" stroke-linecap="round" stroke-linejoin="round"/>
<path d="M1.771 8.6723C1.771 5.58587 1.771 4.04266 2.65791 3.08383C3.54483 2.125 4.9723 2.125 7.82725 2.125H9.17308C12.028 2.125 13.4555 2.125 14.3424 3.08383C15.2293 4.04266 15.2293 5.58587 15.2293 8.6723V9.03604C15.2293 12.1225 15.2293 13.6657 14.3424 14.6245C13.4555 15.5833 12.028 15.5833 9.17308 15.5833H7.82725C4.9723 15.5833 3.54483 15.5833 2.65791 14.6245C1.771 13.6657 1.771 12.1225 1.771 9.03604V8.6723Z" stroke="#9E9E9F" stroke-width="1.2" stroke-linecap="round" stroke-linejoin="round"/>
<path d="M2.125 5.66663H14.875" stroke="#9E9E9F" stroke-width="1.2" stroke-linecap="round" stroke-linejoin="round"/>
</svg>
