<svg width="66" height="68" viewBox="0 0 66 68" fill="none" xmlns="http://www.w3.org/2000/svg">
<path opacity="0.4" d="M43.6665 15.7607H22.3332C18.4059 15.7607 15.2221 18.9445 15.2221 22.8718V44.2051C15.2221 48.1325 18.4059 51.3162 22.3332 51.3162H43.6665C47.5938 51.3162 50.7776 48.1325 50.7776 44.2051V22.8718C50.7776 18.9445 47.5938 15.7607 43.6665 15.7607Z" fill="white"/>
<path opacity="0.2" d="M37.4439 21.9819H16.1106C12.1833 21.9819 8.99951 25.1657 8.99951 29.093V50.4263C8.99951 54.3537 12.1833 57.5374 16.1106 57.5374H37.4439C41.3713 57.5374 44.555 54.3537 44.555 50.4263V29.093C44.555 25.1657 41.3713 21.9819 37.4439 21.9819Z" fill="white"/>
<path d="M49.8892 9.5376H28.5559C24.6286 9.5376 21.4448 12.7213 21.4448 16.6487V37.982C21.4448 41.9093 24.6286 45.0931 28.5559 45.0931H49.8892C53.8166 45.0931 57.0003 41.9093 57.0003 37.982V16.6487C57.0003 12.7213 53.8166 9.5376 49.8892 9.5376Z" fill="white"/>
</svg>
