<svg width="66" height="68" viewBox="0 0 66 68" fill="none" xmlns="http://www.w3.org/2000/svg">
<path fill-rule="evenodd" clip-rule="evenodd" d="M47.9232 21.6738C54.543 29.5629 53.6325 41.0786 46.0833 47.4131C42.9973 50.0026 39.2701 51.3454 35.4801 51.4976C34.2015 51.5491 33.2068 52.6271 33.2583 53.9056C33.3094 55.1843 34.3876 56.179 35.6662 56.1277C40.4337 55.936 45.1548 54.2411 49.0617 50.9629C58.6651 42.9046 59.6578 28.4497 51.4728 18.6952C43.2879 8.94085 28.8803 7.40828 19.2768 15.4665C15.3699 18.7447 12.8809 23.0998 11.8644 27.7617C11.5917 29.0119 12.3841 30.2464 13.6344 30.5188C14.8846 30.7915 16.119 29.9992 16.3916 28.7488C17.1998 25.0429 19.1694 21.6055 22.2552 19.0161C29.8044 12.6816 41.3034 13.7845 47.9232 21.6738ZM38.0044 38.4233C40.455 36.3672 40.7746 32.7138 38.7184 30.2632C36.6621 27.8127 33.0087 27.493 30.5582 29.5492C28.1078 31.6054 27.7881 35.259 29.8443 37.7095C31.9005 40.1599 35.5539 40.4795 38.0044 38.4233ZM40.0275 40.8751C43.8022 37.9522 44.5035 32.2755 41.3146 28.1574C38.1259 24.0394 32.4543 23.2972 28.6796 26.2203C26.9352 27.571 25.8564 29.4847 25.5018 31.5724C25.5074 31.6818 25.5053 31.7931 25.4951 31.9053C25.3781 33.1795 24.2504 34.1178 22.9763 34.0008C20.8464 33.8053 18.6996 34.3687 16.9385 35.7324C13.1637 38.6554 12.4626 44.3321 15.6513 48.4501C18.8402 52.5682 24.5117 53.3102 28.2864 50.3873C30.0309 49.0364 31.1097 47.1227 31.4642 45.035C31.4586 44.9257 31.4607 44.8145 31.4711 44.7022C31.5879 43.4279 32.7156 42.4898 33.9897 42.6067C36.1195 42.8021 38.2663 42.2389 40.0275 40.8751ZM35.7075 47.2478C38.2321 47.0789 40.726 46.1947 42.8646 44.5388C48.8022 39.941 49.6237 31.3195 44.9784 25.3204C40.333 19.3215 31.7804 17.9587 25.8426 22.5565C23.5415 24.3384 22.0025 26.7426 21.2586 29.3596C18.7338 29.5285 16.2399 30.4128 14.1015 32.0686C8.16384 36.6666 7.34232 45.2881 11.9877 51.287C16.6329 57.2861 25.1858 58.6487 31.1234 54.0509C33.4245 52.2691 34.9636 49.8649 35.7075 47.2478Z" fill="white"/>
</svg>
