<svg width="66" height="68" viewBox="0 0 66 68" fill="none" xmlns="http://www.w3.org/2000/svg">
<path fill-rule="evenodd" clip-rule="evenodd" d="M14.3961 20.5595C15.1799 17.1794 18.5671 15.0719 21.9619 15.8524L44.6319 21.0635C48.0267 21.8437 50.1433 25.2164 49.3594 28.5965L44.1256 51.1685C43.342 54.5486 39.9547 56.6561 36.5599 55.8756L13.89 50.6645C10.4952 49.8842 8.37857 46.5114 9.16237 43.1315L14.3961 20.5595ZM21.8727 15.9071C22.6563 12.5271 26.0437 10.4196 29.4384 11.2L52.1083 16.4111C55.5032 17.1914 57.6199 20.5642 56.836 23.9443L51.6022 46.5161C50.8186 49.8963 47.4313 52.0038 44.0365 51.2232L21.3666 46.0122C17.9718 45.2319 15.8552 41.8592 16.6389 38.4791L21.8727 15.9071Z" fill="white"/>
</svg>
