<svg width="66" height="68" viewBox="0 0 66 68" fill="none" xmlns="http://www.w3.org/2000/svg">
<path fill-rule="evenodd" clip-rule="evenodd" d="M26.4517 33.5381C26.4517 29.9229 29.3821 26.9925 32.997 26.9925V22.6289C26.9722 22.6289 22.088 27.5132 22.088 33.5381C22.088 39.5628 26.9722 44.4471 32.997 44.4471V40.0835C29.3821 40.0835 26.4517 37.1531 26.4517 33.5381Z" fill="white"/>
<path fill-rule="evenodd" clip-rule="evenodd" d="M19.9126 33.5369C19.9126 26.3071 25.7735 20.4462 33.0035 20.4462V16.0825C23.3635 16.0825 15.549 23.8972 15.549 33.5369C15.549 43.177 23.3635 50.9915 33.0035 50.9915C42.6434 50.9915 50.4579 43.177 50.4579 33.5369H46.0943C46.0943 40.7669 40.2334 46.6279 33.0035 46.6279C25.7735 46.6279 19.9126 40.7669 19.9126 33.5369Z" fill="white"/>
<path fill-rule="evenodd" clip-rule="evenodd" d="M13.3607 33.5376C13.3607 22.6927 22.152 13.9012 32.997 13.9012V9.5376C19.7423 9.5376 8.99707 20.2827 8.99707 33.5376C8.99707 46.7923 19.7423 57.5375 32.997 57.5375C46.2519 57.5375 56.997 46.7923 56.997 33.5376C56.997 29.2008 55.8447 25.1263 53.8281 21.6111L50.043 23.7823C51.6906 26.6544 52.6334 29.9826 52.6334 33.5376C52.6334 44.3825 43.8419 53.1739 32.997 53.1739C22.152 53.1739 13.3607 44.3825 13.3607 33.5376Z" fill="white"/>
<path d="M32.9971 44.4464C39.0229 44.4464 43.9078 39.5615 43.9078 33.5357C43.9078 27.5099 39.0229 22.625 32.9971 22.625V44.4464Z" fill="white"/>
</svg>
