<svg width="66" height="68" viewBox="0 0 66 68" fill="none" xmlns="http://www.w3.org/2000/svg">
<path d="M46.4983 9.96289H19.4983C13.6579 9.96289 8.92334 14.6975 8.92334 20.5379V47.5378C8.92334 53.3782 13.6579 58.1128 19.4983 58.1128H46.4983C52.3387 58.1128 57.0733 53.3782 57.0733 47.5378V20.5379C57.0733 14.6975 52.3387 9.96289 46.4983 9.96289Z" stroke="#0C0C0F" stroke-width="0.15"/>
<path opacity="0.4" fill-rule="evenodd" clip-rule="evenodd" d="M26.4913 18.7417H22.1101V23.0929H17.7595V27.4459H22.1407V23.0941H26.4913V18.7417ZM43.888 23.0941H39.5932V18.7417H43.9744V23.0929H48.2693V27.4459H43.888V23.0941ZM39.59 27.4465H35.2088V31.7987H39.59V27.4465ZM35.2088 36.1499H39.59V40.5022H35.2088V36.1499ZM30.8288 27.4465H26.4476V31.7987H30.8288V27.4465ZM26.4476 36.1499H30.8288V40.5022H26.4476V36.1499ZM17.7288 44.98H22.11V40.6267H17.7288V44.98ZM43.8559 44.98H48.2371V40.6267H43.8559V44.98ZM26.4577 53.6847H30.839V49.332H26.4577V53.6847ZM35.1796 53.6847H39.5608V49.332H35.1796V53.6847Z" fill="white"/>
<path fill-rule="evenodd" clip-rule="evenodd" d="M30.8726 10.0376H22.1101V14.3899H30.8726V10.0376ZM13.4119 14.39H22.1086V23.094H13.4132V27.4464H9.03198V23.0934L13.4132 23.094L13.4119 14.39ZM52.6725 14.39H43.9758V23.094H52.617V27.4464H56.9982V23.0934H52.6725V14.39ZM43.8857 31.8369H48.234V36.1899H43.8857V31.8369ZM22.1746 31.8005H17.7934V36.2727H22.1746V31.8005ZM17.7919 27.447H9.05249V31.7993H17.7919V27.447ZM56.9748 27.447H48.2354V31.7993H56.9748V27.447ZM30.8726 14.3899L26.4899 14.39V18.7424H30.8713L30.8726 14.3899ZM39.5945 14.39H35.2132V18.7422L30.8713 18.7424L30.8714 23.0946H35.2526V18.7424H39.5945V14.39ZM35.2086 31.7981H30.8275V36.1505H35.2086V31.7981ZM43.9743 10.0376H35.2118L35.2132 14.39L43.9743 14.3899V10.0376ZM22.0765 53.6853H13.3796V44.9805H22.0765L26.4577 44.9803V49.3329H22.0765V53.6853L30.8389 53.685V58.0377H22.0765V53.6853ZM43.8557 53.6853H52.6389V44.9805H43.8545L39.4745 44.9815V49.3329H43.8545L43.8557 53.6853L35.1807 53.685V58.0377H43.8557V53.6853ZM8.99829 44.9805H13.3796L13.3795 40.6272H8.99829V44.9805ZM52.5833 44.9805H56.9645V40.6272H52.5833V44.9805ZM9.02172 40.627H17.7611V36.2744H9.02172V40.627ZM48.2369 40.627H56.9441V36.1911H48.2369V40.627ZM30.8377 49.3329H35.219V44.9803H30.8377V49.3329Z" fill="white"/>
</svg>
