<svg width="40" height="40" viewBox="0 0 40 40" fill="none" xmlns="http://www.w3.org/2000/svg">
<path d="M14.5514 35.8315C16.705 32.1264 21.6372 31.6896 24.4462 34.5208C25.0742 35.1537 25.3882 35.4704 25.6667 35.5083C25.9452 35.5461 27.6926 34.5439 28.3129 34.1882C28.9452 33.8258 30.6985 32.8202 30.8087 32.557C30.9188 32.2939 30.8035 31.8454 30.5728 30.9483C29.7338 27.6865 31.7683 24.2538 35.019 23.3683C35.8888 23.1315 36.3237 23.013 36.4955 22.7864C36.6673 22.56 36.6673 20.5679 36.6673 19.8391C36.6673 19.1104 36.6673 17.1183 36.4955 16.8917C36.3237 16.6653 35.8888 16.5467 35.019 16.3099C31.7678 15.4244 29.7317 11.9917 30.5703 8.72971C30.8008 7.83256 30.9162 7.38398 30.806 7.12094C30.6958 6.85792 28.9426 5.85241 28.3104 5.48986C27.6899 5.13408 25.9425 4.13195 25.6642 4.16983C25.3857 4.20772 25.0717 4.52421 24.4435 5.1572C22.0113 7.60791 17.9873 7.60801 15.5553 5.15735C14.9271 4.52438 14.613 4.20788 14.3346 4.17C14.0562 4.13212 12.3087 5.13427 11.6883 5.49005C11.0561 5.85263 9.30275 6.85811 9.19258 7.12118C9.08243 7.38425 9.1978 7.83276 9.42852 8.72983C10.2675 11.9917 8.23298 15.4244 4.98235 16.3098C4.1125 16.5467 3.67757 16.6653 3.50578 16.8918C3.33398 17.1183 3.33398 19.1104 3.33398 19.8391C3.33398 20.5679 3.33398 22.56 3.50578 22.7866C3.6776 23.0131 4.11232 23.1315 4.98175 23.3682C4.99195 23.371 5.00213 23.3739 5.01232 23.3766" stroke="#CFFE25" stroke-width="2" stroke-linecap="round"/>
<path d="M4.14883 30.3037C5.94883 28.5044 12.0688 22.4469 12.6688 21.7472C13.3031 21.0075 12.7888 20.0079 13.0948 16.9092C13.2429 15.4098 13.5656 14.2865 14.4888 13.4506C15.5888 12.411 16.4888 12.411 19.5888 12.3411C22.2888 12.411 22.6088 12.1112 22.8888 12.8109C23.0888 13.3107 22.4888 13.6105 21.7688 14.4102C20.1688 16.0096 19.2288 16.8092 19.1388 17.309C18.4888 19.5081 21.0488 20.8076 22.4488 19.4082C22.9783 18.8789 25.4288 16.4094 25.6688 16.2095C25.8488 16.0495 26.2797 16.0573 26.4888 16.3094C26.6688 16.4862 26.6888 16.5093 26.6688 17.309C26.6503 18.0492 26.6586 19.1119 26.6608 20.2078C26.6637 21.6278 26.5888 23.2066 25.9888 24.0063C24.7888 25.8055 22.7888 25.9055 20.9888 25.9854C19.2888 26.0854 17.8888 25.9055 17.4488 26.2253C17.0888 26.4053 15.1888 28.4045 12.8888 30.7035L8.78884 34.8018C5.38883 37.5007 1.64884 33.3024 4.14883 30.3037Z" stroke="#CFFE25" stroke-opacity="0.6" stroke-width="2" stroke-linecap="round"/>
</svg>
