<svg width="40" height="40" viewBox="0 0 40 40" fill="none" xmlns="http://www.w3.org/2000/svg">
<path d="M20.0007 36.666L16.6673 26.666H3.33398L6.66732 36.666H20.0007ZM20.0007 36.666H26.6673" stroke="#CFFE25" stroke-opacity="0.6" stroke-width="2" stroke-linecap="round" stroke-linejoin="round"/>
<path d="M19.9993 21.666V20.8327C19.9993 17.69 19.9993 16.1186 19.023 15.1423C18.0467 14.166 16.4754 14.166 13.3327 14.166C10.19 14.166 8.61864 14.166 7.64233 15.1423C6.66602 16.1186 6.66602 17.69 6.66602 20.8327V21.666" stroke="#CFFE25" stroke-width="2" stroke-linecap="round" stroke-linejoin="round"/>
<path d="M31.6667 21.6663C31.6667 23.5073 30.1743 24.9997 28.3333 24.9997C26.4924 24.9997 25 23.5073 25 21.6663C25 19.8254 26.4924 18.333 28.3333 18.333C30.1743 18.333 31.6667 19.8254 31.6667 21.6663Z" stroke="#CFFE25" stroke-width="2"/>
<path d="M16.6667 6.66634C16.6667 8.50729 15.1743 9.99967 13.3333 9.99967C11.4924 9.99967 10 8.50729 10 6.66634C10 4.82539 11.4924 3.33301 13.3333 3.33301C15.1743 3.33301 16.6667 4.82539 16.6667 6.66634Z" stroke="#CFFE25" stroke-width="2"/>
<path d="M23.334 29.166H33.334C35.1749 29.166 36.6673 30.6584 36.6673 32.4993V33.3327C36.6673 35.1736 35.1749 36.666 33.334 36.666H31.6673" stroke="#CFFE25" stroke-width="2" stroke-linecap="round"/>
</svg>
