<svg width="66" height="68" viewBox="0 0 66 68" fill="none" xmlns="http://www.w3.org/2000/svg">
<path d="M32.9973 9.5376C46.2522 9.5376 56.9972 20.2827 56.9972 33.5376H52.6324H44.1601C44.1601 27.3726 39.1623 22.3747 32.9973 22.3747C26.8326 22.3747 21.8344 27.3726 21.8344 33.5376H13.3597H8.99731C8.99731 20.2827 19.7428 9.5376 32.9973 9.5376Z" fill="white"/>
<path d="M32.9973 57.5376C19.7428 57.5376 8.99731 46.7925 8.99731 33.5376H13.3597H21.8344H44.1601C44.1601 39.7026 39.1623 44.7004 32.9973 44.7004C26.8326 44.7004 21.8344 39.7026 21.8344 33.5376H13.3597C13.3597 44.3824 22.1515 53.1741 32.9962 53.1741C43.8409 53.1741 52.6324 44.3824 52.6324 33.5376H56.9972C56.9972 46.7925 46.2522 57.5376 32.9973 57.5376Z" fill="white"/>
</svg>
