<svg width="66" height="68" viewBox="0 0 66 68" fill="none" xmlns="http://www.w3.org/2000/svg">
<path fill-rule="evenodd" clip-rule="evenodd" d="M33.4153 10.0376C35.0722 10.0376 36.4153 11.3807 36.4153 13.0376V23.7074C36.4783 23.7236 36.5412 23.7404 36.6037 23.7578L43.438 11.9205L45.4586 13.0871C46.8934 13.9156 47.3851 15.7503 46.5566 17.1852L41.2213 26.4261C41.2673 26.4713 41.3129 26.5169 41.3581 26.5628L53.1982 19.727L54.3649 21.7478C55.1933 23.1827 54.7016 25.0173 53.2667 25.8458L44.0284 31.1796C44.0461 31.2434 44.0632 31.3073 44.0797 31.3716H57.748V33.7049C57.748 35.3618 56.4049 36.7049 54.748 36.7049H44.0797C44.0635 36.768 44.0467 36.831 44.0293 36.8937L55.8649 43.7269L54.6982 45.7477C53.8697 47.1826 52.0349 47.6742 50.6 46.8459L41.3602 41.5113C41.3149 41.5575 41.2691 41.6032 41.2229 41.6485L48.0581 53.4874L46.0376 54.6541C44.6027 55.4826 42.7679 54.9909 41.9395 53.5561L36.6058 44.3179C36.5425 44.3355 36.4791 44.3524 36.4153 44.3688V58.0375H34.0821C32.4252 58.0375 31.0821 56.6944 31.0821 55.0375V44.3686C31.0183 44.3523 30.9549 44.3352 30.8917 44.3178L24.0568 56.1562L22.036 54.9895C20.6011 54.1612 20.1096 52.3264 20.938 50.8915L26.2747 41.6479C26.2282 41.6023 26.182 41.5561 26.1364 41.5096L14.2956 48.3459L13.1288 46.3249C12.3004 44.89 12.7921 43.0554 14.2269 42.2269L23.4684 36.8915C23.4513 36.8295 23.4346 36.7673 23.4186 36.7049H9.74805V34.3716C9.74805 32.7147 11.0912 31.3716 12.748 31.3716H23.4186C23.4349 31.3082 23.4517 31.2449 23.4693 31.1819L11.6289 24.3458L12.7956 22.3251C13.624 20.8902 15.4587 20.3985 16.8936 21.227L26.1385 26.5644C26.184 26.5182 26.2299 26.4722 26.2762 26.4267L19.4394 14.5851L21.4602 13.4185C22.8951 12.59 24.7299 13.0816 25.5582 14.5165L30.8938 23.7579C30.9562 23.7407 31.0191 23.7239 31.0821 23.7077V10.0376H33.4153ZM38.4685 36.5249L38.2674 36.8733C37.8336 37.563 37.2463 38.1465 36.5535 38.5757L36.2683 38.7402C35.5401 39.1313 34.7104 39.3579 33.829 39.3709H33.6693C30.7605 39.3282 28.4158 36.957 28.4158 34.0382C28.4158 31.0926 30.8035 28.7048 33.7492 28.7048C34.6668 28.7048 35.5303 28.9365 36.2844 29.3447L36.5379 29.4911C37.2529 29.9306 37.8565 30.534 38.296 31.2491L38.4429 31.5035C38.8344 32.2269 39.0634 33.051 39.0814 33.927V34.1493C39.0638 35.0061 38.8442 35.8131 38.4685 36.5249Z" fill="white"/>
</svg>
