<svg width="40" height="40" viewBox="0 0 40 40" fill="none" xmlns="http://www.w3.org/2000/svg">
<path opacity="0.6" d="M26.6665 28.333L14.9998 28.333" stroke="#CFFE25" stroke-width="2" stroke-linecap="round" stroke-linejoin="round"/>
<path opacity="0.6" d="M26.6665 21.6665L21.6665 21.6665" stroke="#CFFE25" stroke-width="2" stroke-linecap="round" stroke-linejoin="round"/>
<path d="M34.1665 23.3332C34.1665 29.6186 34.1665 32.7613 32.0918 34.7139C30.0172 36.6665 26.6781 36.6665 19.9998 36.6665H18.712C13.2766 36.6665 10.5589 36.6665 8.67162 35.3368C8.13087 34.9558 7.6508 34.504 7.246 33.995C5.83317 32.2187 5.83317 29.6609 5.83317 24.5453V20.3029C5.83317 15.3642 5.83317 12.8949 6.61473 10.9228C7.87119 7.75221 10.5284 5.25131 13.8971 4.06876C15.9925 3.33317 18.6162 3.33317 23.8635 3.33317C26.8619 3.33317 28.3611 3.33317 29.5585 3.75351C31.4835 4.42925 33.0019 5.85833 33.7199 7.67008C34.1665 8.79704 34.1665 10.2081 34.1665 13.0301V23.3332Z" stroke="#CFFE25" stroke-width="2" stroke-linejoin="round"/>
<path d="M5.83333 20C5.83333 16.9318 8.32064 14.4444 11.3889 14.4444C12.4985 14.4444 13.8067 14.6389 14.8856 14.3498C15.8442 14.0929 16.5929 13.3442 16.8498 12.3856C17.1389 11.3067 16.9444 9.99853 16.9444 8.88889C16.9444 5.82064 19.4318 3.33333 22.5 3.33333" stroke="#CFFE25" stroke-width="2" stroke-linecap="round" stroke-linejoin="round"/>
</svg>
