<svg width="66" height="68" viewBox="0 0 66 68" fill="none" xmlns="http://www.w3.org/2000/svg">
<path opacity="0.5" fill-rule="evenodd" clip-rule="evenodd" d="M35.9775 13.7639C36.3483 12.1182 35.3147 10.4836 33.669 10.1129C32.0232 9.74222 30.3887 10.7758 30.018 12.4215C28.6589 18.4556 26.8988 22.3038 24.245 25.0124C21.5984 27.7137 17.7189 29.6303 11.3817 31.0578C9.73599 31.4285 8.70242 33.0632 9.07313 34.7088C9.44384 36.3545 11.0785 37.3881 12.7242 37.0173C19.6149 35.4651 24.7958 33.1791 28.6085 29.2877C32.4138 25.4039 34.5122 20.2695 35.9775 13.7639ZM54.6133 37.0172C56.259 36.6465 57.2926 35.0118 56.9218 33.3662C56.5512 31.7205 54.9165 30.6869 53.2708 31.0577C46.7652 32.523 41.631 34.6214 37.7471 38.4267C33.8558 42.2394 31.5698 47.4201 30.0174 54.3109C29.6468 55.9567 30.6803 57.5913 32.3259 57.9621C33.9717 58.3327 35.6063 57.2992 35.9771 55.6534C37.4046 49.3161 39.3211 45.4369 42.0223 42.7903C44.731 40.1364 48.5793 38.3765 54.6133 37.0172Z" fill="white"/>
<path fill-rule="evenodd" clip-rule="evenodd" d="M35.9771 12.4215C35.6063 10.7758 33.9717 9.74222 32.3261 10.1129C30.6803 10.4836 29.6468 12.1182 30.0174 13.7639C31.4828 20.2695 33.5811 25.4039 37.3865 29.2877C41.1991 33.1791 46.38 35.4651 53.2708 37.0173C54.9165 37.3881 56.5512 36.3545 56.9218 34.7088C57.2926 33.0632 56.259 31.4285 54.6133 31.0578C48.276 29.6303 44.3967 27.7137 41.7501 25.0124C39.0961 22.3038 37.3362 18.4556 35.9771 12.4215ZM12.7242 31.0577C11.0785 30.6869 9.44384 31.7205 9.07313 33.3662C8.70242 35.0118 9.73599 36.6465 11.3817 37.0172C17.7189 38.4447 21.5984 40.3613 24.245 43.0625C26.8988 45.7711 28.6589 49.6194 30.018 55.6534C30.3887 57.2991 32.0232 58.3327 33.669 57.9621C35.3147 57.5913 36.3483 55.9567 35.9775 54.3111C34.5122 47.8054 32.4138 42.6711 28.6085 38.7872C24.7958 34.8959 19.6149 32.6099 12.7242 31.0577Z" fill="white"/>
</svg>
