<svg width="66" height="68" viewBox="0 0 66 68" fill="none" xmlns="http://www.w3.org/2000/svg">
<path fill-rule="evenodd" clip-rule="evenodd" d="M38.7785 11.8072L39.0181 10.0197L35.4433 9.54053L35.2036 11.328L33.0241 27.5875L24.2674 11.7528L23.3946 10.1746L20.2383 11.92L21.111 13.4982L31.4023 32.1079L10.9862 31.051L9.18524 30.9579L8.99878 34.5598L10.7998 34.6531L27.7231 35.5291L14.4697 43.4065L12.9194 44.3279L14.7623 47.4284L16.3125 46.507L28.2152 39.4324L19.2403 50.9596L18.1324 52.3826L20.9784 54.5984L22.0863 53.1754L33.6413 38.3344L43.0199 53.1925L43.9825 54.7175L47.0326 52.7924L46.0699 51.2674L39.5693 40.9686L49.6727 49.5469L51.0473 50.7142L53.3818 47.9647L52.0072 46.7974L41.1805 37.605L54.5554 39.8469L56.3341 40.1449L56.9302 36.5878L55.1516 36.2896L37.5047 33.3318L50.1565 17.496L51.2822 16.087L48.4643 13.8357L47.3386 15.2446L36.499 28.8123L38.7785 11.8072Z" fill="white"/>
<path opacity="0.4" fill-rule="evenodd" clip-rule="evenodd" d="M14.0638 18.665L15.5464 19.6916L33.8723 32.3816L33.9181 32.4133L34.9411 32.194L54.4799 28.0063L56.2433 27.6283L56.9992 31.1551L55.2358 31.5329L36.4991 35.5489L36.2851 36.9614L33.4399 55.7517L33.1699 57.5348L29.6037 56.9948L29.8737 55.2117L32.719 36.4214L32.7808 36.0128L31.819 35.3468L13.4931 22.657L12.0105 21.6302L14.0638 18.665Z" fill="white"/>
</svg>
