<svg width="40" height="40" viewBox="0 0 40 40" fill="none" xmlns="http://www.w3.org/2000/svg">
<path d="M25.2917 36.6668V35.0197L25.2917 34.9848C25.3002 34.0763 26.0449 33.3419 26.9661 33.3336L27.0912 33.3333C29.4773 33.3144 31.527 31.6572 32.0138 29.3535L32.0316 29.2669L32.8969 25.0002L34.4658 24.2266C35.3053 23.8126 35.725 23.6057 35.8159 23.2261C35.9067 22.8466 35.6252 22.4764 35.062 21.7359L31.8829 17.5557C31.5665 17.1397 31.4083 16.9317 31.3236 16.7117C31.2388 16.4916 31.2128 16.1798 31.1606 15.5561C30.5882 8.71197 24.7742 3.3335 17.6864 3.3335C10.2193 3.3335 4.16602 9.30303 4.16602 16.6668C4.16602 21.2496 6.51051 25.2924 10.0812 27.6924M10.0812 27.6924V36.6668M10.0812 27.6924C11.1143 28.3867 12.25 28.9436 13.4613 29.3362" stroke="#CFFE25" stroke-width="2" stroke-linecap="round" stroke-linejoin="round"/>
<path d="M23.334 15L24.8672 16.3215C25.5117 16.877 25.834 17.1548 25.834 17.5C25.834 17.8452 25.5117 18.123 24.8672 18.6785L23.334 20" stroke="#CFFE25" stroke-opacity="0.6" stroke-width="2" stroke-linecap="round" stroke-linejoin="round"/>
<path d="M11.666 15L10.1328 16.3215C9.48829 16.877 9.16602 17.1548 9.16602 17.5C9.16602 17.8452 9.48829 18.123 10.1328 18.6785L11.666 20" stroke="#CFFE25" stroke-opacity="0.6" stroke-width="2" stroke-linecap="round" stroke-linejoin="round"/>
<path d="M19.1673 13.3335L15.834 21.6668" stroke="#CFFE25" stroke-opacity="0.6" stroke-width="2" stroke-linecap="round" stroke-linejoin="round"/>
</svg>
