<svg width="66" height="68" viewBox="0 0 66 68" fill="none" xmlns="http://www.w3.org/2000/svg">
<path fill-rule="evenodd" clip-rule="evenodd" d="M16.5 24.2981C16.5 16.0366 24.0037 9.5376 32.9984 9.5376C41.9933 9.5376 49.4971 16.0366 49.4971 24.2981C49.4971 32.5596 41.9933 39.0585 32.9984 39.0585C24.0037 39.0585 16.5 32.5596 16.5 24.2981ZM20.5155 24.2983C20.5155 18.0472 26.1933 13.1297 32.9992 13.1297C39.8053 13.1297 45.4829 18.0472 45.4829 24.2983C45.4829 30.5495 39.8053 35.4669 32.9992 35.4669C26.1933 35.4669 20.5155 30.5495 20.5155 24.2983ZM16.5028 34.1375C16.5028 33.2769 16.5843 32.4356 16.7403 31.6186C18.0822 38.6447 24.9435 43.8602 33.0013 43.8602C41.0593 43.8602 47.9204 38.6447 49.2625 31.6186C49.4185 32.4356 49.4999 33.2769 49.4999 34.1375C49.4999 42.3992 41.9962 48.8979 33.0013 48.8979C24.0066 48.8979 16.5028 42.3992 16.5028 34.1375ZM16.5028 42.7772C16.5028 41.9168 16.5843 41.0753 16.7403 40.2584C18.0822 47.2844 24.9435 52.4999 33.0013 52.4999C41.0593 52.4999 47.9204 47.2844 49.2625 40.2584C49.4185 41.0753 49.4999 41.9168 49.4999 42.7772C49.4999 51.0389 41.9962 57.5378 33.0013 57.5378C24.0066 57.5378 16.5028 51.0389 16.5028 42.7772Z" fill="white"/>
</svg>
