<svg width="185" height="45" viewBox="0 0 185 45" fill="none" xmlns="http://www.w3.org/2000/svg">
<path fill-rule="evenodd" clip-rule="evenodd" d="M25.8532 7.87144L26.0129 6.67983L23.6297 6.36035L23.4699 7.55197L22.0169 18.3917L16.1791 7.83517L15.5972 6.78305L13.493 7.9467L14.0748 8.99882L20.9357 21.4053L7.32498 20.7007L6.12431 20.6386L6 23.0399L7.20067 23.1021L18.4829 23.6861L9.64728 28.9377L8.61377 29.552L9.84233 31.619L10.8758 31.0047L18.811 26.2883L12.8277 33.9731L12.0891 34.9218L13.9864 36.399L14.725 35.4503L22.4284 25.5563L28.6808 35.4617L29.3225 36.4784L31.3559 35.195L30.7141 34.1783L26.3804 27.3124L33.116 33.0313L34.0324 33.8095L35.5887 31.9765L34.6723 31.1983L27.4545 25.07L36.3711 26.5646L37.5569 26.7633L37.9543 24.3919L36.7686 24.1931L25.004 22.2212L33.4385 11.664L34.189 10.7247L32.3104 9.22382L31.5599 10.1631L24.3335 19.2082L25.8532 7.87144Z" fill="white"/>
<path opacity="0.4" fill-rule="evenodd" clip-rule="evenodd" d="M9.37671 12.4434L10.3651 13.1278L22.5824 21.5878L22.6129 21.6089L23.2949 21.4627L36.3208 18.6709L37.4964 18.4189L38.0003 20.7701L36.8247 21.022L24.3336 23.6993L24.1909 24.641L22.2941 37.1679L22.1141 38.3566L19.7366 37.9966L19.9166 36.8079L21.8135 24.281L21.8547 24.0086L21.2135 23.5646L8.99624 15.1047L8.00781 14.4202L9.37671 12.4434Z" fill="white"/>
<path d="M53.6801 13.5586H61.8401C63.0721 13.5586 64.1361 13.6706 65.0321 13.8946C65.9441 14.1026 66.6961 14.4066 67.2881 14.8066C67.8801 15.1906 68.3201 15.6546 68.6081 16.1986C68.8961 16.7426 69.0401 17.3426 69.0401 17.9986C69.0401 18.8466 68.8001 19.5826 68.3201 20.2066C67.8401 20.8306 67.1201 21.2946 66.1601 21.5986C67.3601 21.8386 68.2961 22.3106 68.9681 23.0146C69.6561 23.7026 70.0001 24.5906 70.0001 25.6786C70.0001 27.1186 69.4001 28.2626 68.2001 29.1106C67.0161 29.9426 65.1361 30.3586 62.5601 30.3586H53.6801V13.5586ZM57.1601 22.6786V28.5586H62.5601C63.7601 28.5586 64.6801 28.3186 65.3201 27.8386C65.9601 27.3586 66.2801 26.6386 66.2801 25.6786C66.2801 24.6546 65.9601 23.9026 65.3201 23.4226C64.6801 22.9266 63.7601 22.6786 62.5601 22.6786H57.1601ZM61.8401 20.8786C64.1601 20.8786 65.3201 19.9186 65.3201 17.9986C65.3201 17.1506 65.0241 16.5026 64.4321 16.0546C63.8561 15.5906 62.9921 15.3586 61.8401 15.3586H57.1601V20.8786H61.8401ZM76.2354 30.3586H72.8754V13.5586H76.2354V30.3586ZM82.362 26.3986C82.362 27.9186 83.282 28.6786 85.122 28.6786H88.482V24.1186H85.122C83.282 24.1186 82.362 24.8786 82.362 26.3986ZM88.482 22.4386C88.482 21.2866 88.178 20.4386 87.57 19.8946C86.978 19.3506 86.202 19.0786 85.242 19.0786C84.522 19.0786 83.818 19.1906 83.13 19.4146C82.442 19.6226 81.826 19.9106 81.282 20.2786L80.442 18.8386C80.794 18.5986 81.178 18.3906 81.594 18.2146C82.026 18.0386 82.466 17.8946 82.914 17.7826C83.362 17.6546 83.802 17.5586 84.234 17.4946C84.682 17.4306 85.098 17.3986 85.482 17.3986C86.506 17.3986 87.41 17.5186 88.194 17.7586C88.978 17.9986 89.642 18.3426 90.186 18.7906C90.7299 19.2386 91.138 19.7746 91.41 20.3986C91.6979 21.0066 91.842 21.6866 91.842 22.4386V30.3586H85.122C82.946 30.3586 81.338 30.0306 80.298 29.3746C79.274 28.7186 78.762 27.7266 78.762 26.3986C78.762 25.0706 79.274 24.0786 80.298 23.4226C81.338 22.7666 82.946 22.4386 85.122 22.4386H88.482ZM106.711 28.6786V30.3586H94.2307V28.4386L102.511 19.5586H94.4706V17.8786H106.471V19.7986L98.1907 28.6786H106.711ZM115.7 29.1586C116.484 29.1586 117.212 29.0226 117.884 28.7506C118.572 28.4786 119.244 28.0946 119.9 27.5986L120.86 29.0386C120.556 29.3106 120.196 29.5586 119.78 29.7826C119.38 30.0066 118.94 30.1986 118.46 30.3586C117.996 30.5026 117.508 30.6146 116.996 30.6946C116.484 30.7906 115.972 30.8386 115.46 30.8386C114.324 30.8386 113.284 30.6866 112.34 30.3826C111.412 30.0946 110.62 29.6706 109.964 29.1106C109.308 28.5346 108.796 27.8306 108.428 26.9986C108.076 26.1666 107.9 25.2066 107.9 24.1186C107.9 23.0466 108.068 22.0946 108.404 21.2626C108.756 20.4146 109.236 19.7106 109.844 19.1506C110.468 18.5746 111.204 18.1426 112.052 17.8546C112.9 17.5506 113.836 17.3986 114.86 17.3986C115.82 17.3986 116.724 17.5426 117.572 17.8306C118.42 18.1186 119.156 18.5426 119.78 19.1026C120.404 19.6466 120.9 20.3106 121.268 21.0946C121.636 21.8786 121.82 22.7666 121.82 23.7586V25.4386H111.572C111.764 26.7666 112.22 27.7186 112.94 28.2946C113.676 28.8706 114.596 29.1586 115.7 29.1586ZM114.86 18.9586C114.396 18.9586 113.964 19.0466 113.564 19.2226C113.164 19.3986 112.812 19.6786 112.508 20.0626C112.22 20.4466 111.98 20.9426 111.788 21.5506C111.612 22.1586 111.516 22.8946 111.5 23.7586H118.22C118.22 22.9266 118.124 22.2066 117.932 21.5986C117.74 20.9906 117.484 20.4946 117.164 20.1106C116.86 19.7106 116.5 19.4226 116.084 19.2466C115.684 19.0546 115.276 18.9586 114.86 18.9586ZM134.178 29.0386C135.266 29.0386 136.306 28.8546 137.298 28.4866C138.306 28.1026 139.266 27.4866 140.178 26.6386L141.378 28.0786C140.466 28.9266 139.362 29.5986 138.066 30.0946C136.77 30.5906 135.394 30.8386 133.938 30.8386C132.434 30.8386 131.074 30.6466 129.858 30.2626C128.658 29.8786 127.626 29.3106 126.762 28.5586C125.914 27.8066 125.258 26.8786 124.794 25.7746C124.33 24.6706 124.098 23.3986 124.098 21.9586C124.098 20.5186 124.322 19.2466 124.77 18.1426C125.234 17.0386 125.882 16.1106 126.714 15.3586C127.562 14.6066 128.578 14.0386 129.762 13.6546C130.946 13.2706 132.258 13.0786 133.698 13.0786C135.154 13.0786 136.53 13.3266 137.826 13.8226C139.122 14.3186 140.226 14.9906 141.138 15.8386L139.938 17.2786C139.026 16.4306 138.066 15.8226 137.058 15.4546C136.066 15.0706 135.026 14.8786 133.938 14.8786C133.074 14.8786 132.266 15.0226 131.514 15.3106C130.762 15.5826 130.114 16.0066 129.57 16.5826C129.026 17.1586 128.594 17.8946 128.274 18.7906C127.97 19.6706 127.818 20.7266 127.818 21.9586C127.818 23.1906 127.97 24.2546 128.274 25.1506C128.594 26.0306 129.034 26.7586 129.594 27.3346C130.17 27.9106 130.842 28.3426 131.61 28.6306C132.394 28.9026 133.25 29.0386 134.178 29.0386ZM149.791 29.2786C150.303 29.2786 150.783 29.1826 151.231 28.9906C151.679 28.7986 152.071 28.5026 152.407 28.1026C152.743 27.6866 153.007 27.1506 153.199 26.4946C153.407 25.8386 153.511 25.0466 153.511 24.1186C153.511 23.1906 153.407 22.3986 153.199 21.7426C153.007 21.0866 152.743 20.5586 152.407 20.1586C152.071 19.7426 151.679 19.4386 151.231 19.2466C150.783 19.0546 150.303 18.9586 149.791 18.9586C149.279 18.9586 148.799 19.0546 148.351 19.2466C147.903 19.4386 147.511 19.7426 147.175 20.1586C146.839 20.5586 146.567 21.0866 146.359 21.7426C146.167 22.3986 146.071 23.1906 146.071 24.1186C146.071 25.0466 146.167 25.8386 146.359 26.4946C146.567 27.1506 146.839 27.6866 147.175 28.1026C147.511 28.5026 147.903 28.7986 148.351 28.9906C148.799 29.1826 149.279 29.2786 149.791 29.2786ZM149.791 17.3986C150.863 17.3986 151.847 17.5506 152.743 17.8546C153.655 18.1426 154.431 18.5746 155.071 19.1506C155.711 19.7106 156.207 20.4146 156.559 21.2626C156.927 22.0946 157.111 23.0466 157.111 24.1186C157.111 25.2066 156.927 26.1666 156.559 26.9986C156.207 27.8306 155.711 28.5346 155.071 29.1106C154.431 29.6706 153.655 30.0946 152.743 30.3826C151.847 30.6866 150.863 30.8386 149.791 30.8386C148.703 30.8386 147.711 30.6866 146.815 30.3826C145.919 30.0946 145.151 29.6706 144.511 29.1106C143.871 28.5346 143.367 27.8306 142.999 26.9986C142.647 26.1666 142.471 25.2066 142.471 24.1186C142.471 23.0466 142.647 22.0946 142.999 21.2626C143.367 20.4146 143.871 19.7106 144.511 19.1506C145.151 18.5746 145.919 18.1426 146.815 17.8546C147.711 17.5506 148.703 17.3986 149.791 17.3986ZM169.355 19.5586H166.475C165.387 19.5586 164.555 19.8546 163.979 20.4466C163.403 21.0226 163.115 21.8866 163.115 23.0386V30.3586H159.755V23.0386C159.755 21.4066 160.267 20.1426 161.291 19.2466C162.331 18.3346 163.819 17.8786 165.755 17.8786H169.355V19.5586ZM177.739 29.1586C178.523 29.1586 179.251 29.0226 179.923 28.7506C180.611 28.4786 181.283 28.0946 181.939 27.5986L182.899 29.0386C182.595 29.3106 182.235 29.5586 181.819 29.7826C181.419 30.0066 180.979 30.1986 180.499 30.3586C180.035 30.5026 179.547 30.6146 179.035 30.6946C178.523 30.7906 178.011 30.8386 177.499 30.8386C176.363 30.8386 175.323 30.6866 174.379 30.3826C173.451 30.0946 172.659 29.6706 172.003 29.1106C171.347 28.5346 170.835 27.8306 170.467 26.9986C170.115 26.1666 169.939 25.2066 169.939 24.1186C169.939 23.0466 170.107 22.0946 170.443 21.2626C170.795 20.4146 171.275 19.7106 171.883 19.1506C172.507 18.5746 173.243 18.1426 174.091 17.8546C174.939 17.5506 175.875 17.3986 176.899 17.3986C177.859 17.3986 178.763 17.5426 179.611 17.8306C180.459 18.1186 181.195 18.5426 181.819 19.1026C182.443 19.6466 182.939 20.3106 183.307 21.0946C183.675 21.8786 183.859 22.7666 183.859 23.7586V25.4386H173.611C173.803 26.7666 174.259 27.7186 174.979 28.2946C175.715 28.8706 176.635 29.1586 177.739 29.1586ZM176.899 18.9586C176.435 18.9586 176.003 19.0466 175.603 19.2226C175.203 19.3986 174.851 19.6786 174.547 20.0626C174.259 20.4466 174.019 20.9426 173.827 21.5506C173.651 22.1586 173.555 22.8946 173.539 23.7586H180.259C180.259 22.9266 180.163 22.2066 179.971 21.5986C179.779 20.9906 179.523 20.4946 179.203 20.1106C178.899 19.7106 178.539 19.4226 178.123 19.2466C177.723 19.0546 177.315 18.9586 176.899 18.9586Z" fill="white"/>
</svg>
