<svg width="163" height="45" viewBox="0 0 163 45" fill="none" xmlns="http://www.w3.org/2000/svg">
<path fill-rule="evenodd" clip-rule="evenodd" d="M11 16.1988C11 10.6911 16.0025 6.3584 21.999 6.3584C27.9956 6.3584 32.9981 10.6911 32.9981 16.1988C32.9981 21.7065 27.9956 26.0391 21.999 26.0391C16.0025 26.0391 11 21.7065 11 16.1988ZM13.677 16.1989C13.677 12.0315 17.4622 8.75312 21.9995 8.75312C26.5369 8.75312 30.322 12.0315 30.322 16.1989C30.322 20.3664 26.5369 23.6447 21.9995 23.6447C17.4622 23.6447 13.677 20.3664 13.677 16.1989ZM11.0019 22.7584C11.0019 22.1847 11.0562 21.6238 11.1602 21.0791C12.0548 25.7632 16.629 29.2402 22.0009 29.2402C27.3729 29.2402 31.947 25.7632 32.8417 21.0791C32.9457 21.6238 33 22.1847 33 22.7584C33 28.2662 27.9975 32.5987 22.0009 32.5987C16.0044 32.5987 11.0019 28.2662 11.0019 22.7584ZM11.0019 28.5182C11.0019 27.9446 11.0562 27.3836 11.1602 26.839C12.0548 31.523 16.629 35 22.0009 35C27.3729 35 31.947 31.523 32.8417 26.839C32.9457 27.3836 33 27.9446 33 28.5182C33 34.026 27.9975 38.3586 22.0009 38.3586C16.0044 38.3586 11.0019 34.026 11.0019 28.5182Z" fill="white"/>
<path d="M53.3679 30.3586V14.9026H59.8479C62.1679 14.9026 63.9119 15.5026 65.0799 16.7026C66.2639 17.8866 66.8559 19.8866 66.8559 22.7026C66.8559 25.3586 66.2719 27.3026 65.1039 28.5346C63.9519 29.7506 62.1999 30.3586 59.8479 30.3586H53.3679ZM56.6079 27.8626H59.3919C60.3039 27.8626 61.0719 27.7266 61.6959 27.4546C62.3199 27.1666 62.7839 26.6546 63.0879 25.9186C63.4079 25.1666 63.5679 24.0946 63.5679 22.7026C63.5679 21.3106 63.4239 20.2466 63.1359 19.5106C62.8479 18.7746 62.3999 18.2706 61.7919 17.9986C61.1839 17.7266 60.3839 17.5906 59.3919 17.5906H56.6079V27.8626ZM72.3423 30.5986C71.6223 30.5986 70.9503 30.4706 70.3263 30.2146C69.7183 29.9426 69.2223 29.5506 68.8383 29.0386C68.4703 28.5106 68.2863 27.8546 68.2863 27.0706C68.2863 25.9506 68.6783 25.0546 69.4623 24.3826C70.2623 23.7106 71.4383 23.3746 72.9903 23.3746H76.3503V23.0626C76.3503 22.3586 76.1503 21.8626 75.7503 21.5746C75.3663 21.2866 74.5823 21.1426 73.3983 21.1426C72.1023 21.1426 70.8543 21.3426 69.6543 21.7426V19.4626C70.1823 19.2546 70.8223 19.0866 71.5743 18.9586C72.3423 18.8146 73.1743 18.7426 74.0703 18.7426C75.7823 18.7426 77.1023 19.0946 78.0303 19.7986C78.9743 20.4866 79.4463 21.5986 79.4463 23.1346V30.3586H76.6383L76.4703 29.3266C76.0223 29.7266 75.4703 30.0386 74.8143 30.2626C74.1583 30.4866 73.3343 30.5986 72.3423 30.5986ZM73.2303 28.4626C73.9503 28.4626 74.5743 28.3426 75.1023 28.1026C75.6303 27.8626 76.0463 27.5586 76.3503 27.1906V25.3906H73.0623C71.7983 25.3906 71.1663 25.9106 71.1663 26.9506C71.1663 27.9586 71.8543 28.4626 73.2303 28.4626ZM86.5674 30.5986C85.2554 30.5986 84.2794 30.2546 83.6394 29.5666C83.0154 28.8786 82.7034 27.9426 82.7034 26.7586V21.4786H81.0954V18.9826H82.7034V16.5346L85.9434 15.5746V18.9826H88.8234L88.6314 21.4786H85.9434V26.5426C85.9434 27.1666 86.0874 27.5986 86.3754 27.8386C86.6634 28.0626 87.1114 28.1746 87.7194 28.1746C88.1674 28.1746 88.6314 28.0946 89.1114 27.9346V30.1666C88.7594 30.3106 88.3754 30.4146 87.9594 30.4786C87.5434 30.5586 87.0794 30.5986 86.5674 30.5986ZM94.3502 30.5986C93.6302 30.5986 92.9582 30.4706 92.3342 30.2146C91.7262 29.9426 91.2302 29.5506 90.8462 29.0386C90.4782 28.5106 90.2942 27.8546 90.2942 27.0706C90.2942 25.9506 90.6862 25.0546 91.4702 24.3826C92.2702 23.7106 93.4462 23.3746 94.9982 23.3746H98.3582V23.0626C98.3582 22.3586 98.1582 21.8626 97.7582 21.5746C97.3742 21.2866 96.5902 21.1426 95.4061 21.1426C94.1102 21.1426 92.8622 21.3426 91.6622 21.7426V19.4626C92.1902 19.2546 92.8302 19.0866 93.5822 18.9586C94.3502 18.8146 95.1822 18.7426 96.0782 18.7426C97.7902 18.7426 99.1102 19.0946 100.038 19.7986C100.982 20.4866 101.454 21.5986 101.454 23.1346V30.3586H98.6462L98.4782 29.3266C98.0302 29.7266 97.4782 30.0386 96.8222 30.2626C96.1662 30.4866 95.3422 30.5986 94.3502 30.5986ZM95.2382 28.4626C95.9582 28.4626 96.5822 28.3426 97.1102 28.1026C97.6382 27.8626 98.0542 27.5586 98.3582 27.1906V25.3906H95.0702C93.8062 25.3906 93.1742 25.9106 93.1742 26.9506C93.1742 27.9586 93.8622 28.4626 95.2382 28.4626ZM108.863 30.5986C107.871 30.5986 106.943 30.5266 106.079 30.3826C105.231 30.2386 104.495 30.0306 103.871 29.7586V26.9026C104.575 27.1906 105.335 27.4226 106.151 27.5986C106.967 27.7746 107.767 27.8626 108.551 27.8626C109.671 27.8626 110.495 27.7586 111.023 27.5506C111.551 27.3426 111.815 26.8706 111.815 26.1346C111.815 25.6706 111.703 25.3026 111.479 25.0306C111.255 24.7586 110.863 24.5186 110.303 24.3106C109.759 24.0866 108.983 23.8386 107.975 23.5666C106.359 23.1186 105.223 22.5586 104.567 21.8866C103.911 21.2146 103.583 20.2866 103.583 19.1026C103.583 17.6786 104.103 16.5826 105.143 15.8146C106.183 15.0466 107.695 14.6626 109.679 14.6626C110.607 14.6626 111.471 14.7266 112.271 14.8546C113.071 14.9826 113.719 15.1346 114.215 15.3106V18.1666C112.903 17.6706 111.535 17.4226 110.111 17.4226C109.103 17.4226 108.311 17.5346 107.735 17.7586C107.159 17.9666 106.871 18.4146 106.871 19.1026C106.871 19.5026 106.975 19.8226 107.183 20.0626C107.391 20.3026 107.743 20.5186 108.239 20.7106C108.751 20.9026 109.463 21.1186 110.375 21.3586C111.639 21.6946 112.615 22.0946 113.303 22.5586C113.991 23.0226 114.463 23.5506 114.719 24.1426C114.991 24.7346 115.127 25.3986 115.127 26.1346C115.127 27.4786 114.615 28.5586 113.591 29.3746C112.567 30.1906 110.991 30.5986 108.863 30.5986ZM121.536 30.5986C120.224 30.5986 119.248 30.2546 118.608 29.5666C117.984 28.8786 117.672 27.9426 117.672 26.7586V21.4786H116.064V18.9826H117.672V16.5346L120.912 15.5746V18.9826H123.792L123.6 21.4786H120.912V26.5426C120.912 27.1666 121.056 27.5986 121.344 27.8386C121.632 28.0626 122.08 28.1746 122.688 28.1746C123.136 28.1746 123.6 28.0946 124.08 27.9346V30.1666C123.728 30.3106 123.344 30.4146 122.928 30.4786C122.512 30.5586 122.048 30.5986 121.536 30.5986ZM129.319 30.5986C128.599 30.5986 127.927 30.4706 127.303 30.2146C126.695 29.9426 126.199 29.5506 125.815 29.0386C125.447 28.5106 125.263 27.8546 125.263 27.0706C125.263 25.9506 125.655 25.0546 126.439 24.3826C127.239 23.7106 128.415 23.3746 129.967 23.3746H133.327V23.0626C133.327 22.3586 133.127 21.8626 132.727 21.5746C132.343 21.2866 131.559 21.1426 130.375 21.1426C129.079 21.1426 127.831 21.3426 126.631 21.7426V19.4626C127.159 19.2546 127.799 19.0866 128.551 18.9586C129.319 18.8146 130.151 18.7426 131.047 18.7426C132.759 18.7426 134.079 19.0946 135.007 19.7986C135.951 20.4866 136.423 21.5986 136.423 23.1346V30.3586H133.615L133.447 29.3266C132.999 29.7266 132.447 30.0386 131.791 30.2626C131.135 30.4866 130.311 30.5986 129.319 30.5986ZM130.207 28.4626C130.927 28.4626 131.551 28.3426 132.079 28.1026C132.607 27.8626 133.023 27.5586 133.327 27.1906V25.3906H130.039C128.775 25.3906 128.143 25.9106 128.143 26.9506C128.143 27.9586 128.831 28.4626 130.207 28.4626ZM144.84 30.5986C142.808 30.5986 141.248 30.0946 140.16 29.0866C139.088 28.0786 138.552 26.6066 138.552 24.6706C138.552 22.6706 139.128 21.1826 140.28 20.2066C141.448 19.2306 143 18.7426 144.936 18.7426C145.736 18.7426 146.424 18.7986 147 18.9106C147.576 19.0226 148.136 19.2066 148.68 19.4626V21.7906C148.28 21.5986 147.816 21.4466 147.288 21.3346C146.76 21.2226 146.192 21.1666 145.584 21.1666C144.368 21.1666 143.44 21.4226 142.8 21.9346C142.16 22.4306 141.84 23.3426 141.84 24.6706C141.84 25.8866 142.128 26.7746 142.704 27.3346C143.296 27.8946 144.248 28.1746 145.56 28.1746C146.12 28.1746 146.664 28.1186 147.192 28.0066C147.736 27.8946 148.24 27.7266 148.704 27.5026V29.9026C147.632 30.3666 146.344 30.5986 144.84 30.5986ZM150.751 30.3586V14.1826H153.991V23.0866L158.239 18.9826H161.935L157.351 23.6386L162.199 30.3586H158.767L155.311 25.3426L153.991 26.6146V30.3586H150.751Z" fill="white"/>
</svg>
