<svg width="141" height="45" viewBox="0 0 141 45" fill="none" xmlns="http://www.w3.org/2000/svg">
<path opacity="0.4" d="M29.1114 10.5073H14.8892C12.2709 10.5073 10.1484 12.6298 10.1484 15.2481V29.4703C10.1484 32.0885 12.2709 34.211 14.8892 34.211H29.1114C31.7296 34.211 33.8521 32.0885 33.8521 29.4703V15.2481C33.8521 12.6298 31.7296 10.5073 29.1114 10.5073Z" fill="white"/>
<path opacity="0.2" d="M24.963 14.6548H10.7407C8.1225 14.6548 6 16.7773 6 19.3955V33.6177C6 36.236 8.1225 38.3585 10.7407 38.3585H24.963C27.5812 38.3585 29.7037 36.236 29.7037 33.6177V19.3955C29.7037 16.7773 27.5812 14.6548 24.963 14.6548Z" fill="white"/>
<path d="M33.2598 6.3584H19.0376C16.4194 6.3584 14.2969 8.4809 14.2969 11.0991V25.3214C14.2969 27.9396 16.4194 30.0621 19.0376 30.0621H33.2598C35.8781 30.0621 38.0006 27.9396 38.0006 25.3214V11.0991C38.0006 8.4809 35.8781 6.3584 33.2598 6.3584Z" fill="white"/>
<path d="M67.648 27.1744C65.952 28.8544 63.888 29.6944 61.456 29.6944C59.024 29.6944 56.96 28.8544 55.264 27.1744C53.568 25.4944 52.72 23.4224 52.72 20.9584C52.72 18.4944 53.568 16.4224 55.264 14.7424C56.96 13.0624 59.024 12.2224 61.456 12.2224C63.888 12.2224 65.952 13.0624 67.648 14.7424C69.344 16.4224 70.192 18.4944 70.192 20.9584C70.192 23.4224 69.344 25.4944 67.648 27.1744ZM57.952 24.5584C58.896 25.4864 60.064 25.9504 61.456 25.9504C62.848 25.9504 64.008 25.4864 64.936 24.5584C65.88 23.6304 66.352 22.4304 66.352 20.9584C66.352 19.4864 65.88 18.2864 64.936 17.3584C64.008 16.4304 62.848 15.9664 61.456 15.9664C60.064 15.9664 58.896 16.4304 57.952 17.3584C57.024 18.2864 56.56 19.4864 56.56 20.9584C56.56 22.4304 57.024 23.6304 57.952 24.5584ZM79.8901 17.3584H83.8741L79.4341 29.3584H75.3541L70.9141 17.3584H74.8981L77.3941 24.9664L79.8901 17.3584ZM87.9423 24.7984C88.3583 25.9184 89.3183 26.4784 90.8223 26.4784C91.7983 26.4784 92.5663 26.1744 93.1263 25.5664L96.0063 27.2224C94.8223 28.8704 93.0783 29.6944 90.7743 29.6944C88.7583 29.6944 87.1423 29.0944 85.9263 27.8944C84.7263 26.6944 84.1263 25.1824 84.1263 23.3584C84.1263 21.5504 84.7183 20.0464 85.9023 18.8464C87.1023 17.6304 88.6383 17.0224 90.5103 17.0224C92.2543 17.0224 93.7023 17.6304 94.8543 18.8464C96.0223 20.0464 96.6063 21.5504 96.6063 23.3584C96.6063 23.8704 96.5583 24.3504 96.4623 24.7984H87.9423ZM87.8703 22.1104H93.0303C92.6783 20.8464 91.8303 20.2144 90.4863 20.2144C89.0943 20.2144 88.2223 20.8464 87.8703 22.1104ZM102.248 19.4944C102.472 18.7264 102.92 18.1424 103.592 17.7424C104.28 17.3264 105.032 17.1184 105.848 17.1184V21.1984C104.968 21.0544 104.144 21.2064 103.376 21.6544C102.624 22.0864 102.248 22.8464 102.248 23.9344V29.3584H98.6481V17.3584H102.248V19.4944ZM107.531 29.3584V11.8384H111.131V29.3584H107.531ZM122.477 17.3584H126.077V29.3584H122.477V28.2304C121.629 29.2064 120.437 29.6944 118.901 29.6944C117.317 29.6944 115.965 29.0864 114.845 27.8704C113.725 26.6384 113.165 25.1344 113.165 23.3584C113.165 21.5824 113.725 20.0864 114.845 18.8704C115.965 17.6384 117.317 17.0224 118.901 17.0224C120.437 17.0224 121.629 17.5104 122.477 18.4864V17.3584ZM117.557 25.4944C118.085 26.0224 118.773 26.2864 119.621 26.2864C120.469 26.2864 121.157 26.0224 121.685 25.4944C122.213 24.9664 122.477 24.2544 122.477 23.3584C122.477 22.4624 122.213 21.7504 121.685 21.2224C121.157 20.6944 120.469 20.4304 119.621 20.4304C118.773 20.4304 118.085 20.6944 117.557 21.2224C117.029 21.7504 116.765 22.4624 116.765 23.3584C116.765 24.2544 117.029 24.9664 117.557 25.4944ZM136.278 17.3584H140.118L136.014 28.9984C135.342 30.8864 134.454 32.2384 133.35 33.0544C132.262 33.8704 130.87 34.2384 129.174 34.1584V30.7984C130.006 30.7984 130.646 30.6464 131.094 30.3424C131.542 30.0544 131.902 29.5424 132.174 28.8064L127.398 17.3584H131.358L134.022 24.7024L136.278 17.3584Z" fill="white"/>
</svg>
