<svg width="181" height="45" viewBox="0 0 181 45" fill="none" xmlns="http://www.w3.org/2000/svg">
<path fill-rule="evenodd" clip-rule="evenodd" d="M9.59792 13.7064C10.1204 11.453 12.3786 10.048 14.6418 10.5683L29.7551 14.0424C32.0183 14.5625 33.4294 16.811 32.9068 19.0644L29.4176 34.1124C28.8952 36.3658 26.637 37.7708 24.3738 37.2505L9.26048 33.7764C6.99732 33.2562 5.5862 31.0077 6.10874 28.7544L9.59792 13.7064ZM14.5823 10.6048C15.1047 8.35141 17.363 6.94639 19.6261 7.46667L34.7394 10.9408C37.0027 11.461 38.4138 13.7095 37.8912 15.9629L34.402 31.0108C33.8796 33.2643 31.6214 34.6693 29.3582 34.1489L14.2449 30.6749C11.9817 30.1547 10.5706 27.9062 11.0931 25.6528L14.5823 10.6048Z" fill="white"/>
<path d="M53.517 31.3588V13.9043H65.0739V16.9469H57.2074V21.106H64.3068V24.1486H57.2074V31.3588H53.517ZM67.277 31.3588V18.2679H70.7969V20.552H70.9332C71.1719 19.7395 71.5724 19.1259 72.1349 18.7111C72.6974 18.2907 73.3452 18.0804 74.0781 18.0804C74.2599 18.0804 74.456 18.0918 74.6662 18.1145C74.8764 18.1373 75.0611 18.1685 75.2202 18.2083V21.4299C75.0497 21.3787 74.8139 21.3333 74.5128 21.2935C74.2116 21.2537 73.9361 21.2338 73.6861 21.2338C73.152 21.2338 72.6747 21.3503 72.2543 21.5833C71.8395 21.8105 71.5099 22.1287 71.2656 22.5378C71.027 22.9469 70.9077 23.4185 70.9077 23.9526V31.3588H67.277ZM80.4553 31.606C79.62 31.606 78.8757 31.4611 78.2223 31.1713C77.5689 30.8759 77.0518 30.4412 76.6712 29.8674C76.2962 29.2878 76.1087 28.5662 76.1087 27.7026C76.1087 26.9753 76.2422 26.3645 76.5092 25.8702C76.7763 25.3759 77.1399 24.9782 77.6001 24.677C78.0604 24.3759 78.5831 24.1486 79.1683 23.9952C79.7592 23.8418 80.3786 23.7338 81.0263 23.6713C81.7876 23.5918 82.4013 23.5179 82.8672 23.4498C83.3331 23.3759 83.6712 23.2679 83.8814 23.1259C84.0916 22.9838 84.1967 22.7736 84.1967 22.4952V22.4441C84.1967 21.9043 84.0263 21.4867 83.6854 21.1912C83.3501 20.8958 82.8729 20.748 82.2536 20.748C81.6001 20.748 81.0803 20.8929 80.6939 21.1827C80.3075 21.4668 80.0518 21.8248 79.9268 22.2566L76.5689 21.9838C76.7393 21.1884 77.0746 20.5009 77.5746 19.9213C78.0746 19.3361 78.7195 18.8873 79.5092 18.5748C80.3047 18.2566 81.2251 18.0975 82.2706 18.0975C82.9979 18.0975 83.6939 18.1827 84.3587 18.3532C85.0291 18.5236 85.6229 18.7878 86.1399 19.1458C86.6626 19.5037 87.0746 19.964 87.3757 20.5265C87.6768 21.0833 87.8274 21.7509 87.8274 22.5293V31.3588H84.3842V29.5435H84.282C84.0717 29.9526 83.7905 30.3134 83.4382 30.6259C83.0859 30.9327 82.6626 31.1742 82.1683 31.3503C81.674 31.5208 81.103 31.606 80.4553 31.606ZM81.495 29.1003C82.0291 29.1003 82.5007 28.9952 82.9098 28.785C83.3189 28.5691 83.6399 28.2793 83.8729 27.9157C84.1058 27.552 84.2223 27.1401 84.2223 26.6799V25.2907C84.1087 25.3645 83.9524 25.4327 83.7536 25.4952C83.5604 25.552 83.3416 25.606 83.0973 25.6571C82.853 25.7026 82.6087 25.7452 82.3643 25.785C82.12 25.8191 81.8984 25.8503 81.6996 25.8787C81.2734 25.9412 80.9013 26.0407 80.5831 26.177C80.2649 26.3134 80.0178 26.498 79.8416 26.731C79.6655 26.9583 79.5774 27.2424 79.5774 27.5833C79.5774 28.0776 79.7564 28.4554 80.1143 28.7168C80.478 28.9725 80.9382 29.1003 81.495 29.1003ZM90.6442 31.3588V18.2679H94.1044V20.5776H94.2578C94.5305 19.8105 94.9851 19.2054 95.6214 18.7623C96.2578 18.3191 97.0192 18.0975 97.9055 18.0975C98.8033 18.0975 99.5675 18.3219 100.198 18.7708C100.829 19.214 101.249 19.8162 101.46 20.5776H101.596C101.863 19.8276 102.346 19.2282 103.045 18.7793C103.749 18.3248 104.582 18.0975 105.542 18.0975C106.763 18.0975 107.755 18.4867 108.516 19.2651C109.283 20.0378 109.667 21.1344 109.667 22.5549V31.3588H106.045V23.2708C106.045 22.5435 105.852 21.998 105.465 21.6344C105.079 21.2708 104.596 21.089 104.016 21.089C103.357 21.089 102.843 21.2992 102.474 21.7196C102.104 22.1344 101.92 22.6827 101.92 23.3645V31.3588H98.3999V23.1941C98.3999 22.552 98.2152 22.0407 97.8459 21.66C97.4822 21.2793 97.0021 21.089 96.4055 21.089C96.0021 21.089 95.6385 21.1912 95.3146 21.3958C94.9964 21.5946 94.7436 21.8759 94.5561 22.2395C94.3686 22.5975 94.2749 23.0179 94.2749 23.5009V31.3588H90.6442ZM118.501 31.6145C117.154 31.6145 115.995 31.3418 115.023 30.7963C114.058 30.2452 113.313 29.4668 112.79 28.4611C112.268 27.4498 112.006 26.2537 112.006 24.873C112.006 23.5265 112.268 22.3446 112.79 21.3276C113.313 20.3105 114.049 19.5179 114.998 18.9498C115.952 18.3816 117.072 18.0975 118.356 18.0975C119.219 18.0975 120.023 18.2367 120.768 18.5151C121.518 18.7878 122.171 19.1998 122.728 19.7509C123.29 20.302 123.728 20.9952 124.04 21.8304C124.353 22.66 124.509 23.6316 124.509 24.7452V25.7424H113.455V23.4924H121.092C121.092 22.9696 120.978 22.5066 120.751 22.1032C120.523 21.6998 120.208 21.3844 119.805 21.1571C119.407 20.9242 118.944 20.8077 118.415 20.8077C117.864 20.8077 117.376 20.9355 116.95 21.1912C116.529 21.4412 116.2 21.7793 115.961 22.2054C115.722 22.6259 115.6 23.0946 115.594 23.6117V25.7509C115.594 26.3986 115.714 26.9583 115.952 27.4299C116.197 27.9015 116.54 28.2651 116.984 28.5208C117.427 28.7765 117.952 28.9043 118.56 28.9043C118.964 28.9043 119.333 28.8475 119.668 28.7338C120.004 28.6202 120.29 28.4498 120.529 28.2225C120.768 27.9952 120.95 27.7168 121.075 27.3873L124.433 27.6088C124.262 28.4157 123.913 29.1202 123.384 29.7225C122.862 30.3191 122.185 30.785 121.356 31.1202C120.532 31.4498 119.58 31.6145 118.501 31.6145ZM126.947 31.3588V13.9043H138.504V16.9469H130.637V21.106H137.737V24.1486H130.637V31.3588H126.947ZM144.548 13.9043V31.3588H140.918V13.9043H144.548ZM153.371 31.6145C152.048 31.6145 150.903 31.3333 149.937 30.7708C148.977 30.2026 148.235 29.4128 147.712 28.4015C147.19 27.3844 146.928 26.2054 146.928 24.8645C146.928 23.5123 147.19 22.3304 147.712 21.3191C148.235 20.302 148.977 19.5123 149.937 18.9498C150.903 18.3816 152.048 18.0975 153.371 18.0975C154.695 18.0975 155.837 18.3816 156.798 18.9498C157.763 19.5123 158.508 20.302 159.031 21.3191C159.553 22.3304 159.815 23.5123 159.815 24.8645C159.815 26.2054 159.553 27.3844 159.031 28.4015C158.508 29.4128 157.763 30.2026 156.798 30.7708C155.837 31.3333 154.695 31.6145 153.371 31.6145ZM153.388 28.802C153.991 28.802 154.494 28.6316 154.897 28.2907C155.3 27.9441 155.604 27.4725 155.809 26.8759C156.019 26.2793 156.124 25.6003 156.124 24.839C156.124 24.0776 156.019 23.3986 155.809 22.802C155.604 22.2054 155.3 21.7338 154.897 21.3873C154.494 21.0407 153.991 20.8674 153.388 20.8674C152.781 20.8674 152.269 21.0407 151.854 21.3873C151.445 21.7338 151.136 22.2054 150.925 22.802C150.721 23.3986 150.619 24.0776 150.619 24.839C150.619 25.6003 150.721 26.2793 150.925 26.8759C151.136 27.4725 151.445 27.9441 151.854 28.2907C152.269 28.6316 152.781 28.802 153.388 28.802ZM164.43 31.3588L160.867 18.2679H164.54L166.569 27.0634H166.688L168.802 18.2679H172.407L174.555 27.0123H174.665L176.66 18.2679H180.325L176.771 31.3588H172.927L170.677 23.1259H170.515L168.265 31.3588H164.43Z" fill="white"/>
</svg>
