<svg width="30" height="30" viewBox="0 0 30 30" fill="none" xmlns="http://www.w3.org/2000/svg">
<path d="M8.4541 15.1792C14.5994 3.72573 22.2514 3.59366 25.3092 4.9593C26.6749 8.01714 26.5428 15.6691 15.0893 21.8144C14.9706 21.1316 14.31 19.3429 12.6178 17.6507C10.9256 15.9585 9.13693 15.298 8.4541 15.1792Z" stroke="white" stroke-width="1.81719" stroke-linecap="round" stroke-linejoin="round"/>
<path d="M16.6318 21.2692C18.8591 22.3596 19.0969 24.3146 19.4054 26.1756C19.4054 26.1756 24.0703 22.7272 21.0864 17.9983" stroke="white" stroke-width="1.81719" stroke-linecap="round" stroke-linejoin="round"/>
<path d="M8.99913 13.7302C7.90882 11.503 5.95375 11.2652 4.09277 10.9566C4.09277 10.9566 7.54119 6.29174 12.2701 9.27569" stroke="white" stroke-width="1.81719" stroke-linecap="round" stroke-linejoin="round"/>
<path d="M7.74952 18.7997C7.12945 19.4197 6.07534 21.2179 6.81942 23.4501C9.05166 24.1942 10.8498 23.1401 11.4699 22.52" stroke="white" stroke-width="1.81719" stroke-linecap="round" stroke-linejoin="round"/>
<path d="M21.4178 10.972C21.4178 9.80118 20.4687 8.852 19.2978 8.852C18.1269 8.852 17.1777 9.80118 17.1777 10.972C17.1777 12.1429 18.1269 13.0921 19.2978 13.0921C20.4687 13.0921 21.4178 12.1429 21.4178 10.972Z" stroke="white" stroke-width="1.81719"/>
</svg>
