<svg width="31" height="30" viewBox="0 0 31 30" fill="none" xmlns="http://www.w3.org/2000/svg">
<path d="M11.9054 13.5867L13.1845 16.1662C13.359 16.5253 13.8241 16.8697 14.2166 16.9356L16.5351 17.324C18.0177 17.5732 18.3666 18.6577 17.2982 19.7276L15.4958 21.5449C15.1905 21.8527 15.0233 22.4463 15.1178 22.8713L15.6338 25.121C16.0408 26.9017 15.1033 27.5905 13.5407 26.6599L11.3676 25.3628C10.9751 25.1283 10.3282 25.1283 9.9285 25.3628L7.75539 26.6599C6.20005 27.5905 5.25521 26.8944 5.66222 25.121L6.17824 22.8713C6.27273 22.4463 6.10556 21.8527 5.80031 21.5449L3.99786 19.7276C2.93674 18.6577 3.27833 17.5732 4.76099 17.324L7.07947 16.9356C7.46467 16.8697 7.92982 16.5253 8.10425 16.1662L9.38341 13.5867C10.0811 12.1871 11.2149 12.1871 11.9054 13.5867Z" stroke="#010104" stroke-width="1.81719" stroke-linecap="round" stroke-linejoin="round"/>
<path d="M27.6102 2.84534L17.9186 12.537M20.3415 2.84534L14.2842 8.90263M25.1873 12.537L21.5529 16.1714" stroke="#010104" stroke-width="1.81719" stroke-linecap="round"/>
</svg>
