<svg width="28" height="28" viewBox="0 0 28 28" fill="none" xmlns="http://www.w3.org/2000/svg">
<path d="M25.606 10.5243C25.496 10.2576 25.3092 10.0296 25.0692 9.86945C24.8292 9.70927 24.547 9.62412 24.2585 9.62483H18.0752L15.3405 3.2385C15.228 2.97586 15.041 2.752 14.8025 2.59469C14.564 2.43737 14.2845 2.35352 13.9988 2.35352C13.7131 2.35352 13.4337 2.43737 13.1952 2.59469C12.9567 2.752 12.7696 2.97586 12.6572 3.2385L9.92368 9.62483H3.74034C3.45187 9.62478 3.16987 9.71028 2.93 9.87052C2.69012 10.0308 2.50316 10.2585 2.39276 10.525C2.28236 10.7916 2.25348 11.0848 2.30978 11.3677C2.36607 11.6507 2.505 11.9105 2.70901 12.1145L7.19718 16.6015L5.31651 24.1288C5.24731 24.4061 5.26108 24.6975 5.35612 24.967C5.45115 25.2365 5.62326 25.4721 5.85106 25.6446C6.07887 25.8171 6.35233 25.9189 6.63749 25.9373C6.92264 25.9557 7.20692 25.8899 7.45501 25.7482L14 22.0078L20.5462 25.7493C20.7943 25.8909 21.0786 25.9564 21.3637 25.9378C21.6488 25.9192 21.9221 25.8173 22.1498 25.6447C22.3775 25.4721 22.5494 25.2364 22.6443 24.9669C22.7392 24.6974 22.7528 24.406 22.6835 24.1288L20.8028 16.6015L25.2898 12.1145C25.4945 11.9108 25.6339 11.6508 25.6902 11.3676C25.7465 11.0844 25.7172 10.7908 25.606 10.5243Z" fill="#CFFE25"/>
</svg>
