<svg width="238" height="76" viewBox="0 0 238 76" fill="none" xmlns="http://www.w3.org/2000/svg">
<rect x="0.775024" y="0.598877" width="236.603" height="75.401" rx="37.7005" fill="#CFFE25"/>
<path d="M107.241 36.5355C107.194 35.5058 106.843 34.7258 106.187 34.1954C105.532 33.665 104.666 33.3998 103.59 33.3998C102.56 33.3998 101.773 33.6104 101.227 34.0316C100.696 34.4528 100.431 35.0066 100.431 35.693C100.431 36.2858 100.61 36.7539 100.969 37.0971C101.328 37.4403 101.843 37.7211 102.514 37.9395C103.184 38.1579 103.972 38.3607 104.877 38.5479C105.829 38.7351 106.718 39.0081 107.545 39.3669C108.372 39.7257 109.035 40.2327 109.534 40.8879C110.049 41.5431 110.306 42.4245 110.306 43.5321C110.306 45.061 109.729 46.2934 108.574 47.2294C107.436 48.1654 105.821 48.6334 103.73 48.6334C102.358 48.6334 101.172 48.3994 100.174 47.9314C99.1908 47.4634 98.4264 46.816 97.8804 45.9892C97.35 45.1468 97.077 44.1718 97.0614 43.0641L99.7758 42.7131C99.8226 43.9144 100.197 44.8192 100.899 45.4276C101.617 46.036 102.576 46.3402 103.777 46.3402C104.854 46.3402 105.719 46.1374 106.375 45.7318C107.03 45.3262 107.358 44.6554 107.358 43.7194C107.358 43.0641 107.178 42.5649 106.819 42.2217C106.476 41.8785 106.016 41.6211 105.439 41.4495C104.861 41.2623 104.23 41.0907 103.543 40.9347C102.28 40.6695 101.195 40.3419 100.291 39.9519C99.4014 39.5463 98.7228 39.0237 98.2548 38.3841C97.7868 37.7445 97.5528 36.9177 97.5528 35.9036C97.5528 34.9676 97.8024 34.1408 98.3016 33.4232C98.8008 32.69 99.5028 32.1206 100.408 31.715C101.312 31.3094 102.373 31.1066 103.59 31.1066C105.571 31.1066 107.116 31.5746 108.223 32.5106C109.331 33.431 109.924 34.6634 110.002 36.2078L107.241 36.5355ZM116.821 48.6334C115.339 48.6334 114.192 48.2278 113.381 47.4166C112.57 46.5898 112.164 45.4744 112.164 44.0704V35.1548H114.902V43.7428C114.902 44.5384 115.128 45.1468 115.581 45.568C116.049 45.9892 116.681 46.1998 117.476 46.1998C118.443 46.1998 119.223 45.919 119.816 45.3574C120.425 44.7802 120.737 44.0314 120.752 43.1109V35.1548H123.49V48.3994H120.963L120.846 46.4572C120.409 47.1436 119.84 47.6818 119.138 48.0718C118.436 48.4462 117.663 48.6334 116.821 48.6334ZM125.973 52.3073V35.1548H128.477L128.664 37.3077C129.023 36.5589 129.585 35.9738 130.349 35.5526C131.129 35.1314 132.01 34.9208 132.993 34.9208C134.148 34.9208 135.146 35.1938 135.989 35.7398C136.847 36.2858 137.502 37.0659 137.954 38.0799C138.422 39.0939 138.656 40.2951 138.656 41.6835C138.656 43.1031 138.422 44.3356 137.954 45.3808C137.486 46.4104 136.815 47.2138 135.942 47.791C135.084 48.3526 134.078 48.6334 132.923 48.6334C132.003 48.6334 131.176 48.4462 130.443 48.0718C129.709 47.6818 129.124 47.1046 128.688 46.3402V52.3073H125.973ZM128.688 42.3621C128.688 43.5789 129.015 44.5462 129.67 45.2638C130.326 45.9658 131.207 46.3168 132.315 46.3168C133.453 46.3168 134.327 45.919 134.936 45.1234C135.56 44.3122 135.872 43.1655 135.872 41.6835C135.872 40.2483 135.56 39.1485 134.936 38.3841C134.327 37.6041 133.461 37.2141 132.338 37.2141C131.23 37.2141 130.341 37.5651 129.67 38.2671C129.015 38.9535 128.688 39.8973 128.688 41.0985V42.3621ZM140.468 52.3073V35.1548H142.972L143.159 37.3077C143.518 36.5589 144.079 35.9738 144.844 35.5526C145.624 35.1314 146.505 34.9208 147.488 34.9208C148.642 34.9208 149.641 35.1938 150.483 35.7398C151.341 36.2858 151.996 37.0659 152.449 38.0799C152.917 39.0939 153.151 40.2951 153.151 41.6835C153.151 43.1031 152.917 44.3356 152.449 45.3808C151.981 46.4104 151.31 47.2138 150.436 47.791C149.578 48.3526 148.572 48.6334 147.418 48.6334C146.497 48.6334 145.67 48.4462 144.937 48.0718C144.204 47.6818 143.619 47.1046 143.182 46.3402V52.3073H140.468ZM143.182 42.3621C143.182 43.5789 143.51 44.5462 144.165 45.2638C144.82 45.9658 145.702 46.3168 146.809 46.3168C147.948 46.3168 148.822 45.919 149.43 45.1234C150.054 44.3122 150.366 43.1655 150.366 41.6835C150.366 40.2483 150.054 39.1485 149.43 38.3841C148.822 37.6041 147.956 37.2141 146.833 37.2141C145.725 37.2141 144.836 37.5651 144.165 38.2671C143.51 38.9535 143.182 39.8973 143.182 41.0985V42.3621ZM160.741 48.6334C159.446 48.6334 158.315 48.3526 157.348 47.791C156.396 47.2138 155.655 46.4182 155.125 45.4042C154.594 44.3746 154.329 43.1733 154.329 41.8005C154.329 40.4121 154.594 39.2031 155.125 38.1735C155.655 37.1439 156.396 36.3482 157.348 35.7866C158.315 35.2094 159.446 34.9208 160.741 34.9208C162.036 34.9208 163.159 35.2094 164.111 35.7866C165.062 36.3482 165.803 37.1439 166.334 38.1735C166.864 39.2031 167.129 40.4043 167.129 41.7771C167.129 43.1655 166.864 44.3746 166.334 45.4042C165.803 46.4182 165.062 47.2138 164.111 47.791C163.159 48.3526 162.036 48.6334 160.741 48.6334ZM160.741 46.3402C161.895 46.3402 162.792 45.9424 163.432 45.1468C164.072 44.3356 164.391 43.2045 164.391 41.7537C164.391 40.3029 164.072 39.1875 163.432 38.4075C162.792 37.6119 161.895 37.2141 160.741 37.2141C159.587 37.2141 158.682 37.6197 158.027 38.4309C157.387 39.2421 157.067 40.3575 157.067 41.7771C157.067 43.2279 157.387 44.3512 158.027 45.1468C158.666 45.9424 159.571 46.3402 160.741 46.3402ZM168.931 48.3994V35.1548H171.388L171.552 37.1439C172.254 35.7086 173.315 34.991 174.734 34.991C175.218 34.991 175.585 35.0378 175.834 35.1314V37.7055H175.67C175.405 37.6119 175.085 37.5651 174.711 37.5651C173.837 37.5651 173.135 37.8225 172.605 38.3373C172.075 38.8365 171.762 39.5229 171.669 40.3965V48.3994H168.931ZM180.675 48.5632C178.787 48.5632 177.843 47.752 177.843 46.1296V37.1907L176.088 37.2141V35.1548L177.843 35.1782V31.5278L180.511 31.2938V35.1782L182.664 35.1548V37.2141L180.511 37.1907V45.0766C180.511 45.5602 180.581 45.8878 180.722 46.0594C180.862 46.2154 181.151 46.2934 181.587 46.2934C182.04 46.2934 182.399 46.2544 182.664 46.1764V48.3292C182.305 48.4072 181.954 48.4618 181.611 48.493C181.283 48.5398 180.971 48.5632 180.675 48.5632Z" fill="#010104"/>
<path d="M59.9504 46.7643C58.3281 46.7643 57.0129 45.4492 57.0129 43.8268C57.0129 42.2045 58.3281 40.8894 59.9504 40.8894" stroke="#010104" stroke-width="2.20308" stroke-linecap="round" stroke-linejoin="round"/>
<path d="M83.4501 46.7643C85.0724 46.7643 86.3875 45.4492 86.3875 43.8268C86.3875 42.2045 85.0724 40.8894 83.4501 40.8894" stroke="#010104" stroke-width="2.20308" stroke-linecap="round" stroke-linejoin="round"/>
<path d="M64.3567 34.2802L64.3567 29.874" stroke="#010104" stroke-width="2.20308" stroke-linejoin="round"/>
<path d="M79.0438 34.2802L79.0438 29.874" stroke="#010104" stroke-width="2.20308" stroke-linejoin="round"/>
<circle cx="64.3565" cy="28.4055" r="1.46872" stroke="#010104" stroke-width="2.20308" stroke-linejoin="round"/>
<circle cx="79.0439" cy="28.4055" r="1.46872" stroke="#010104" stroke-width="2.20308" stroke-linejoin="round"/>
<path d="M73.9033 34.28H69.4971C65.343 34.28 63.2659 34.28 61.9754 35.6151C60.6848 36.9501 60.6848 39.0988 60.6848 43.3962C60.6848 47.6937 60.6848 49.8424 61.9754 51.1774C63.2659 52.5124 65.343 52.5124 69.4971 52.5124H71.0031C72.1656 52.5124 72.5758 52.7525 73.377 53.625C74.2631 54.5899 75.6352 55.8776 76.8763 56.1774C78.6405 56.6037 78.8381 56.014 78.4445 54.3327C78.3324 53.8536 78.0527 53.0878 78.3477 52.6417C78.5129 52.3917 78.7881 52.3303 79.3387 52.2074C80.2073 52.0134 80.9236 51.6962 81.4251 51.1774C82.7156 49.8424 82.7156 47.6937 82.7156 43.3962C82.7156 39.0988 82.7156 36.9501 81.4251 35.6151C80.1346 34.28 78.0575 34.28 73.9033 34.28Z" stroke="#010104" stroke-width="2.20308" stroke-linejoin="round"/>
<path d="M68.0286 46.03C68.8658 46.9219 70.1989 47.4988 71.7004 47.4988C73.2018 47.4988 74.5349 46.9219 75.3722 46.03" stroke="#010104" stroke-width="2.20308" stroke-linecap="round" stroke-linejoin="round"/>
<path d="M67.3072 40.1553H67.2941" stroke="#010104" stroke-width="2.93744" stroke-linecap="round" stroke-linejoin="round"/>
<path d="M76.1195 40.1553H76.1063" stroke="#010104" stroke-width="2.93744" stroke-linecap="round" stroke-linejoin="round"/>
</svg>
