<svg width="1870" height="1020" viewBox="0 0 1870 1020" fill="none" xmlns="http://www.w3.org/2000/svg">
<g clip-path="url(#paint0_angular_412_1631_clip_path)" data-figma-skip-parse="true"><g transform="matrix(-0.0942547 0.658847 -1.20789 -0.1728 1029.25 361.153)"><foreignObject x="-1200.65" y="-1200.65" width="2401.3" height="2401.3"><div xmlns="http://www.w3.org/1999/xhtml" style="background:conic-gradient(from 90deg,rgba(255, 255, 255, 1) 0deg,rgba(255, 255, 255, 0) 22.929deg,rgba(255, 255, 255, 1) 50.5235deg,rgba(255, 255, 255, 0) 64.7601deg,rgba(255, 255, 255, 1) 107.798deg,rgba(255, 255, 255, 0) 138.697deg,rgba(255, 255, 255, 1) 164.637deg,rgba(255, 255, 255, 0) 192.196deg,rgba(255, 255, 255, 1) 217.306deg,rgba(255, 255, 255, 0) 246.826deg,rgba(255, 255, 255, 1) 290.79deg,rgba(255, 255, 255, 0) 332.731deg,rgba(255, 255, 255, 1) 360deg);height:100%;width:100%;opacity:0.4"></div></foreignObject></g></g><path opacity="0.2" d="M680.466 0L679.966 -2.79209e-08L679.966 1020L680.466 1020L680.966 1020L680.966 2.79209e-08L680.466 0ZM1360.47 0H1359.97V1020H1360.47H1360.97V0H1360.47ZM170.467 0L169.967 -2.09407e-08L169.966 1020L170.466 1020L170.966 1020L170.967 2.09407e-08L170.467 0ZM0 169.534V170.034H1870V169.534V169.034H0V169.534ZM0 339.533V340.033H1870V339.533V339.033H0V339.533ZM0 509.534V510.034H1870V509.534V509.034H0V509.534ZM0 679.533V680.033H1870V679.533V679.033H0V679.533ZM0 849.534V850.034H1870V849.534V849.034H0V849.534ZM850.466 0L849.966 -2.79209e-08L849.966 1020L850.466 1020L850.966 1020L850.966 2.79209e-08L850.466 0ZM1530.47 0H1529.97V1020H1530.47H1530.97V0H1530.47ZM340.466 0L339.966 -2.79209e-08L339.966 1020L340.466 1020L340.966 1020L340.966 2.79209e-08L340.466 0ZM1020.47 0H1019.97V1020H1020.47H1020.97V0H1020.47ZM1700.47 0H1699.97V1020H1700.47H1700.97V0H1700.47ZM510.466 0L509.966 -2.79209e-08L509.966 1020L510.466 1020L510.966 1020L510.966 2.79209e-08L510.466 0ZM1190.47 0H1189.97V1020H1190.47H1190.97V0H1190.47Z" data-figma-gradient-fill="{&#34;type&#34;:&#34;GRADIENT_ANGULAR&#34;,&#34;stops&#34;:[{&#34;color&#34;:{&#34;r&#34;:1.0,&#34;g&#34;:1.0,&#34;b&#34;:1.0,&#34;a&#34;:1.0},&#34;position&#34;:0.0},{&#34;color&#34;:{&#34;r&#34;:1.0,&#34;g&#34;:1.0,&#34;b&#34;:1.0,&#34;a&#34;:0.0},&#34;position&#34;:0.063691683113574982},{&#34;color&#34;:{&#34;r&#34;:1.0,&#34;g&#34;:1.0,&#34;b&#34;:1.0,&#34;a&#34;:1.0},&#34;position&#34;:0.14034302532672882},{&#34;color&#34;:{&#34;r&#34;:1.0,&#34;g&#34;:1.0,&#34;b&#34;:1.0,&#34;a&#34;:0.0},&#34;position&#34;:0.17988917231559753},{&#34;color&#34;:{&#34;r&#34;:1.0,&#34;g&#34;:1.0,&#34;b&#34;:1.0,&#34;a&#34;:1.0},&#34;position&#34;:0.29943820834159851},{&#34;color&#34;:{&#34;r&#34;:1.0,&#34;g&#34;:1.0,&#34;b&#34;:1.0,&#34;a&#34;:0.0},&#34;position&#34;:0.38527032732963562},{&#34;color&#34;:{&#34;r&#34;:1.0,&#34;g&#34;:1.0,&#34;b&#34;:1.0,&#34;a&#34;:1.0},&#34;position&#34;:0.45732420682907104},{&#34;color&#34;:{&#34;r&#34;:1.0,&#34;g&#34;:1.0,&#34;b&#34;:1.0,&#34;a&#34;:0.0},&#34;position&#34;:0.53387665748596191},{&#34;color&#34;:{&#34;r&#34;:1.0,&#34;g&#34;:1.0,&#34;b&#34;:1.0,&#34;a&#34;:1.0},&#34;position&#34;:0.60362893342971802},{&#34;color&#34;:{&#34;r&#34;:1.0,&#34;g&#34;:1.0,&#34;b&#34;:1.0,&#34;a&#34;:0.0},&#34;position&#34;:0.68562757968902588},{&#34;color&#34;:{&#34;r&#34;:1.0,&#34;g&#34;:1.0,&#34;b&#34;:1.0,&#34;a&#34;:1.0},&#34;position&#34;:0.80775016546249390},{&#34;color&#34;:{&#34;r&#34;:1.0,&#34;g&#34;:1.0,&#34;b&#34;:1.0,&#34;a&#34;:0.0},&#34;position&#34;:0.92425340414047241},{&#34;color&#34;:{&#34;r&#34;:1.0,&#34;g&#34;:1.0,&#34;b&#34;:1.0,&#34;a&#34;:1.0},&#34;position&#34;:1.0}],&#34;stopsVar&#34;:[{&#34;color&#34;:{&#34;r&#34;:1.0,&#34;g&#34;:1.0,&#34;b&#34;:1.0,&#34;a&#34;:1.0},&#34;position&#34;:0.0},{&#34;color&#34;:{&#34;r&#34;:1.0,&#34;g&#34;:1.0,&#34;b&#34;:1.0,&#34;a&#34;:0.0},&#34;position&#34;:0.063691683113574982},{&#34;color&#34;:{&#34;r&#34;:1.0,&#34;g&#34;:1.0,&#34;b&#34;:1.0,&#34;a&#34;:1.0},&#34;position&#34;:0.14034302532672882},{&#34;color&#34;:{&#34;r&#34;:1.0,&#34;g&#34;:1.0,&#34;b&#34;:1.0,&#34;a&#34;:0.0},&#34;position&#34;:0.17988917231559753},{&#34;color&#34;:{&#34;r&#34;:1.0,&#34;g&#34;:1.0,&#34;b&#34;:1.0,&#34;a&#34;:1.0},&#34;position&#34;:0.29943820834159851},{&#34;color&#34;:{&#34;r&#34;:1.0,&#34;g&#34;:1.0,&#34;b&#34;:1.0,&#34;a&#34;:0.0},&#34;position&#34;:0.38527032732963562},{&#34;color&#34;:{&#34;r&#34;:1.0,&#34;g&#34;:1.0,&#34;b&#34;:1.0,&#34;a&#34;:1.0},&#34;position&#34;:0.45732420682907104},{&#34;color&#34;:{&#34;r&#34;:1.0,&#34;g&#34;:1.0,&#34;b&#34;:1.0,&#34;a&#34;:0.0},&#34;position&#34;:0.53387665748596191},{&#34;color&#34;:{&#34;r&#34;:1.0,&#34;g&#34;:1.0,&#34;b&#34;:1.0,&#34;a&#34;:1.0},&#34;position&#34;:0.60362893342971802},{&#34;color&#34;:{&#34;r&#34;:1.0,&#34;g&#34;:1.0,&#34;b&#34;:1.0,&#34;a&#34;:0.0},&#34;position&#34;:0.68562757968902588},{&#34;color&#34;:{&#34;r&#34;:1.0,&#34;g&#34;:1.0,&#34;b&#34;:1.0,&#34;a&#34;:1.0},&#34;position&#34;:0.80775016546249390},{&#34;color&#34;:{&#34;r&#34;:1.0,&#34;g&#34;:1.0,&#34;b&#34;:1.0,&#34;a&#34;:0.0},&#34;position&#34;:0.92425340414047241},{&#34;color&#34;:{&#34;r&#34;:1.0,&#34;g&#34;:1.0,&#34;b&#34;:1.0,&#34;a&#34;:1.0},&#34;position&#34;:1.0}],&#34;transform&#34;:{&#34;m00&#34;:-188.50936889648438,&#34;m01&#34;:-2415.772949218750,&#34;m02&#34;:2331.395996093750,&#34;m10&#34;:1317.69433593750,&#34;m11&#34;:-345.60049438476562,&#34;m12&#34;:-124.89417266845703},&#34;opacity&#34;:0.40000000596046448,&#34;blendMode&#34;:&#34;NORMAL&#34;,&#34;visible&#34;:true}"/>
<defs>
<clipPath id="paint0_angular_412_1631_clip_path"><path opacity="0.2" d="M680.466 0L679.966 -2.79209e-08L679.966 1020L680.466 1020L680.966 1020L680.966 2.79209e-08L680.466 0ZM1360.47 0H1359.97V1020H1360.47H1360.97V0H1360.47ZM170.467 0L169.967 -2.09407e-08L169.966 1020L170.466 1020L170.966 1020L170.967 2.09407e-08L170.467 0ZM0 169.534V170.034H1870V169.534V169.034H0V169.534ZM0 339.533V340.033H1870V339.533V339.033H0V339.533ZM0 509.534V510.034H1870V509.534V509.034H0V509.534ZM0 679.533V680.033H1870V679.533V679.033H0V679.533ZM0 849.534V850.034H1870V849.534V849.034H0V849.534ZM850.466 0L849.966 -2.79209e-08L849.966 1020L850.466 1020L850.966 1020L850.966 2.79209e-08L850.466 0ZM1530.47 0H1529.97V1020H1530.47H1530.97V0H1530.47ZM340.466 0L339.966 -2.79209e-08L339.966 1020L340.466 1020L340.966 1020L340.966 2.79209e-08L340.466 0ZM1020.47 0H1019.97V1020H1020.47H1020.97V0H1020.47ZM1700.47 0H1699.97V1020H1700.47H1700.97V0H1700.47ZM510.466 0L509.966 -2.79209e-08L509.966 1020L510.466 1020L510.966 1020L510.966 2.79209e-08L510.466 0ZM1190.47 0H1189.97V1020H1190.47H1190.97V0H1190.47Z"/></clipPath></defs>
</svg>
